<svg width="140" height="27" viewBox="0 0 140 27" xmlns="http://www.w3.org/2000/svg" xmlns:xlink="http://www.w3.org/1999/xlink"><title>8AB65CF9-9447-4B24-B373-156890097071</title><defs><path id="a" d="M.326 7.027h7.01v-7H.326v7z"/><path id="c" d="M28.095.194H.018V26.28h28.077V.194z"/><path id="e" d="M23.206.194H0v26.088h23.206V.194z"/><path id="g" d="M21.538.194H.212v26.088h21.326V.194z"/></defs><g fill="none" fill-rule="evenodd"><g transform="translate(132.593 19.779)"><mask id="b" fill="#fff"><use xlink:href="#a"/></mask><path d="M3.81.027a3.51 3.51 0 0 1 3.526 3.522c0 1.956-1.567 3.479-3.526 3.479-1.96 0-3.484-1.523-3.484-3.48C.326 1.593 1.85.028 3.81.028" fill="#151515" mask="url(#b)"/></g><g transform="translate(89.63 .176)"><mask id="d" fill="#fff"><use xlink:href="#c"/></mask><path fill="#151515" mask="url(#d)" d="M28.095.194H21.22l-6.958 13.358h-.415L6.902.194H.018v.294l7.406 14.24 6.008 11.553h1.25l8.366-16.083-.002.001L28.095.491z"/></g><g transform="translate(0 .176)"><mask id="f" fill="#fff"><use xlink:href="#e"/></mask><path d="M18.81 17.535v-.47c2.7-1.523 4.354-4.132 4.354-7.784 0-5.696-4.224-9.087-10.842-9.087H0v26.088h6.314v-7.609h.005v-.782h-.001v-4.436h-.004V5.63h5.747c2.917 0 4.571 1.391 4.571 3.913 0 2.609-1.61 3.913-4.528 3.913H9.65l-2.276 4.346v.872h4.991l3.96 7.61H23.206v-.299l-4.397-8.449z" fill="#151515" mask="url(#f)"/></g><g transform="translate(45.556 .176)"><mask id="h" fill="#fff"><use xlink:href="#g"/></mask><path fill="#151515" mask="url(#h)" d="M4.58.194L1.895 5.332v.297h13.328v5.13H8.192l-2.435 4.662v.295h9.582v-3.161h-.12v3.161h.005v5.13H2.904l-2.692 5.14v.296h21.326V.194z"/></g></g></svg>